<?xml version="1.0" encoding="UTF-8"?>
<svg width="100" height="100" viewBox="0 0 100 100" xmlns="http://www.w3.org/2000/svg">
  <defs>
    <linearGradient id="organicGrad2" x1="0%" y1="0%" x2="100%" y2="100%">
      <stop offset="0%" style="stop-color:#B794F4"/>
      <stop offset="100%" style="stop-color:#F687B3"/>
    </linearGradient>
  </defs>
  <g transform="translate(20,20)">
    <!-- Squishier blob head -->
    <path d="M15,0 C25,0 30,10 30,15 C30,25 20,30 15,30 C5,30 0,20 0,15 C0,5 5,0 15,0" fill="url(#organicGrad2)">
      <animate attributeName="d" 
        values="M15,0 C25,0 30,10 30,15 C30,25 20,30 15,30 C5,30 0,20 0,15 C0,5 5,0 15,0;
                M15,0 C28,0 35,8 35,15 C35,28 25,35 15,35 C2,35 -5,22 -5,15 C-5,2 2,0 15,0;
                M15,0 C25,0 30,10 30,15 C30,25 20,30 15,30 C5,30 0,20 0,15 C0,5 5,0 15,0"
        dur="4s" repeatCount="indefinite"/>
    </path>
    <!-- Squishier blob body -->
    <path d="M10,30 C20,30 35,35 35,45 C35,55 20,60 10,60 C0,60 -15,55 -15,45 C-15,35 0,30 10,30" fill="url(#organicGrad2)">
      <animate attributeName="d" 
        values="M10,30 C20,30 35,35 35,45 C35,55 20,60 10,60 C0,60 -15,55 -15,45 C-15,35 0,30 10,30;
                M10,30 C25,30 40,35 40,45 C40,60 25,65 10,65 C-5,65 -20,55 -20,45 C-20,30 -5,30 10,30;
                M10,30 C20,30 35,35 35,45 C35,55 20,60 10,60 C0,60 -15,55 -15,45 C-15,35 0,30 10,30"
        dur="3s" repeatCount="indefinite"/>
    </path>
  </g>
</svg> 