<?xml version="1.0" encoding="UTF-8"?>
<svg width="100" height="100" viewBox="0 0 100 100" xmlns="http://www.w3.org/2000/svg">
  <defs>
    <linearGradient id="organicGrad1" x1="0%" y1="0%" x2="100%" y2="100%">
      <stop offset="0%" style="stop-color:#9F7AEA"/>
      <stop offset="100%" style="stop-color:#F687B3"/>
    </linearGradient>
  </defs>
  <g transform="translate(10,20)">
    <!-- Blob head -->
    <path d="M10,0 C15,0 20,5 20,10 C20,15 15,20 10,20 C5,20 0,15 0,10 C0,5 5,0 10,0" fill="url(#organicGrad1)">
      <animate attributeName="d" 
        values="M10,0 C15,0 20,5 20,10 C20,15 15,20 10,20 C5,20 0,15 0,10 C0,5 5,0 10,0;
                M10,0 C18,0 22,5 22,10 C22,15 18,22 10,22 C2,22 -2,15 -2,10 C-2,5 2,0 10,0;
                M10,0 C15,0 20,5 20,10 C20,15 15,20 10,20 C5,20 0,15 0,10 C0,5 5,0 10,0"
        dur="3s" repeatCount="indefinite"/>
    </path>
    <!-- Blob body segments -->
    <path d="M5,20 C15,20 25,25 25,30 C25,35 15,40 5,40 C-5,40 -15,35 -15,30 C-15,25 -5,20 5,20" fill="url(#organicGrad1)">
      <animate attributeName="d" 
        values="M5,20 C15,20 25,25 25,30 C25,35 15,40 5,40 C-5,40 -15,35 -15,30 C-15,25 -5,20 5,20;
                M5,20 C18,20 28,25 28,30 C28,35 18,42 5,42 C-8,42 -18,35 -18,30 C-18,25 -8,20 5,20;
                M5,20 C15,20 25,25 25,30 C25,35 15,40 5,40 C-5,40 -15,35 -15,30 C-15,25 -5,20 5,20"
        dur="2.5s" repeatCount="indefinite"/>
    </path>
  </g>
</svg> 