<?xml version="1.0" encoding="UTF-8"?>
<svg viewBox="0 0 640 480" xmlns="http://www.w3.org/2000/svg">
 <g transform="matrix(1.1036 0 0 1.1036 -130.04 -223.74)" fill="#fff">
  <path d="m184.29 398.08c-18.571 75.714 15.714 41.429 15.714 97.143s-34.286 77.143-7.1428 105.71c27.143 28.572 51.429-24.286 115.71-15.714 64.286 8.5714 51.429 31.428 91.429 32.857 40 1.4286 78.571-31.429 101.43-35.714 22.857-4.2857 34.286 24.286 81.429 37.143s55.714 5.7143 82.857-12.857-2.8571-38.571-45.714-30c-42.857 8.5714-52.857-55.714-101.43-47.143-48.571 8.5714-62.857 35.714-88.571 27.143-25.714-8.5714-64.286-55.714-134.29-31.429-70 24.286-50-18.571-35.714-40s-42.857-27.143-21.429-67.143c21.429-40-12.054-14.036 7.1428-48.571 28.442-51.17 34.2-79.778 2.8572-128.57-21.797-33.933-54.286-48.571-90 10s-10 100 25.714 147.14v3.1e-5z" stroke="#000" stroke-width="8"/>
  <path d="m196.12 218.94c-5.0258 9.4085-14.995 14.133-23.425 19.82-13.798 11.997-18.886 30.723-21.666 48.12-4.5918 34.524 6.3827 69.726 25.809 98.167 8.358 13.789 12.767 29.798 12.906 45.895 1.9912 17.716 8.3433 34.621 16.038 50.547 4.9414 21.027-0.94284 42.5-5.7011 62.975-4.388 13.388-8.3197 27.395-6.804 41.6-0.76212 2.0367 0.95935 4.8727 1.1875 1.2188 1.7121-10.151 1.5094-21.093 7.5312-29.938 6.175-13.357 7.8435-28.114 10.034-42.476 3.615-16.57 7.2861-35.009-1.1837-50.777-7.4484-17.771-5.0404-37.866-12.295-55.726-5.4796-15.96-14.564-30.408-24.787-43.689-8.3209-17.129-3.6743-36.799 1.0328-54.255 5.4687-17.667 17.693-32.315 31.573-44.109 10.754-13.648 5.7808-34.428-6.125-45.719-0.98381-0.56844-3.5143-3.5726-4.125-1.6562z"/>
  <path d="m249.54 519.55c-11.118 25.451-39.608 28.642-58.93 15.794" stroke="#000" stroke-width=".542"/>
  <g stroke="#000" stroke-width="5">
   <path d="m182.56 314.6c-10.435-3.4028-17.162-19.633-15.025-36.251 2.1366-16.618 12.328-27.332 22.762-23.929 10.435 3.4028 17.162 19.633 15.025 36.251-2.1193 16.483-12.171 27.183-22.545 23.998"/>
   <path d="m184.63 306.48c-2.4595-1.5108-4.045-8.717-3.5414-16.096 0.5036-7.3784 2.9057-12.135 5.3651-10.624 2.4595 1.5108 4.0451 8.717 3.5414 16.096-0.49953 7.3185-2.8688 12.069-5.3139 10.655"/>
   <path d="m213.27 313.88c-10.435-3.4028-17.162-19.633-15.025-36.251 2.1366-16.618 12.328-27.332 22.762-23.929 10.435 3.4028 17.162 19.633 15.025 36.251-2.1193 16.483-12.171 27.183-22.545 23.998"/>
   <path d="m215.35 305.76c-2.4595-1.5108-4.0451-8.717-3.5414-16.096 0.50359-7.3784 2.9057-12.135 5.3651-10.624 2.4595 1.5108 4.045 8.717 3.5414 16.096-0.4995 7.3185-2.8688 12.069-5.3139 10.655"/>
  </g>
  <g stroke="#000">
   <path d="m154.29 310.93c8.5714 31.429 28.498 54.898 45.714 52.857 56.905-6.7468 64.977-69.526 47.143-52.857-44.989 42.049-67.143 10-92.857 0z" stroke-width="5"/>
   <g stroke-width=".542">
    <path d="m242.92 398.82c-11.118 25.451-39.608 28.642-58.93 15.794"/>
    <path d="m238.75 451.68c-8.7098 25.853-31.028 29.094-46.164 16.043"/>
    <path d="m295.86 527.33c6.7355 32.901-13.651 57.298-36.588 59.345"/>
    <path d="m346.86 518.22c6.7001 36.711-13.579 63.933-36.395 66.217"/>
    <path d="m392.35 533.33c6.715 35.077-13.609 61.088-36.476 63.27"/>
    <path d="m432.83 559.52c6.7408 32.358-13.661 56.351-36.616 58.365"/>
    <path d="m487.32 542.41c6.7201 34.533-13.619 60.14-36.504 62.289"/>
    <path d="m550.23 538.07c6.8258 24.222-13.833 42.184-37.078 43.691"/>
    <path d="m592.6 567.27c6.8445 22.601-13.872 39.359-37.18 40.766"/>
    <path d="m635 577.55c6.796 26.929-13.773 46.898-36.916 48.574"/>
   </g>
  </g>
 </g>
</svg>
