<?xml version="1.0" encoding="UTF-8"?>
<svg viewBox="0 0 500 500" xmlns="http://www.w3.org/2000/svg" xmlns:xlink="http://www.w3.org/1999/xlink">
 <defs>
  <clipPath id="aw">
   <path d="m176.45 596.34c-8.9253 26.522 30.744 111.89 133.98 137.35 25.456-1.4142 46.909-25.407 51.152-38.135 26.554-1.4142 34.394 57 24.495 69.728-15.556 35.355-36.036 58.888-76.127 60.276-26.29 0.91018-183.1-18.358-217.04-169.68-8.4853-49.497 65.155-72.267 83.54-59.539z" fill-rule="evenodd"/>
  </clipPath>
  <filter id="av">
   <feGaussianBlur stdDeviation=".8581"/>
  </filter>
  <filter id="c">
   <feGaussianBlur stdDeviation=".9771"/>
  </filter>
  <filter id="ar">
   <feGaussianBlur stdDeviation="3.396"/>
  </filter>
  <filter id="aq">
   <feGaussianBlur stdDeviation=".9052"/>
  </filter>
  <filter id="b">
   <feGaussianBlur stdDeviation="2.354"/>
  </filter>
  <filter id="ak" x="-.17727" y="-.09098" width="1.3545" height="1.182">
   <feGaussianBlur stdDeviation="3.8139"/>
  </filter>
  <filter id="al" x="-.17128" y="-.08111" width="1.3426" height="1.1622">
   <feGaussianBlur stdDeviation="3.8139"/>
  </filter>
  <filter id="am" x="-.19551" y="-.08333" width="1.391" height="1.1667">
   <feGaussianBlur stdDeviation="3.8139"/>
  </filter>
  <filter id="an" x="-.23472" y="-.09512" width="1.4694" height="1.1902">
   <feGaussianBlur stdDeviation="3.8139"/>
  </filter>
  <filter id="ao" x="-.28501" y="-.11249" width="1.57" height="1.225">
   <feGaussianBlur stdDeviation="3.8139"/>
  </filter>
  <filter id="ap" x="-.25177" y="-.10569" width="1.5036" height="1.2114">
   <feGaussianBlur stdDeviation="3.8139"/>
  </filter>
  <filter id="aj" x="-.17748" y="-.09744" width="1.355" height="1.1949">
   <feGaussianBlur stdDeviation="2.3676"/>
  </filter>
  <filter id="at" x="-.10172" y="-.0293" width="1.2034" height="1.0586">
   <feGaussianBlur stdDeviation=".9771"/>
  </filter>
  <filter id="au" x="-.10076" y="-.03004" width="1.2015" height="1.0601">
   <feGaussianBlur stdDeviation=".9771"/>
  </filter>
  <filter id="as" x="-.10196" y="-.07601" width="1.2039" height="1.152">
   <feGaussianBlur stdDeviation="5.1356"/>
  </filter>
  <linearGradient id="a">
   <stop stop-color="#a00" offset="0"/>
   <stop stop-color="#800000" offset="1"/>
  </linearGradient>
  <linearGradient id="ai" x1="385.25" x2="308.75" y1="972.74" y2="806.25" gradientUnits="userSpaceOnUse" xlink:href="#a"/>
  <linearGradient id="ah" x1="381.24" x2="435.65" y1="728" y2="928.98" gradientUnits="userSpaceOnUse" xlink:href="#a"/>
  <linearGradient id="ag" x1="474.59" x2="443.99" y1="913.7" y2="995.06" gradientUnits="userSpaceOnUse" xlink:href="#a"/>
  <linearGradient id="af" x1="452.67" x2="424.28" y1="888.76" y2="957.88" gradientUnits="userSpaceOnUse" xlink:href="#a"/>
  <linearGradient id="ae" x1="431.29" x2="392.8" y1="853.57" y2="927.06" gradientUnits="userSpaceOnUse" xlink:href="#a"/>
  <linearGradient id="ad" x1="413.81" x2="386.43" y1="817.46" y2="880.45" gradientUnits="userSpaceOnUse" xlink:href="#a"/>
  <linearGradient id="ac" x1="395.25" x2="373.38" y1="763.23" y2="818.78" gradientUnits="userSpaceOnUse" xlink:href="#a"/>
  <linearGradient id="ab" x1="383.8" x2="360.48" y1="733.47" y2="789.03" gradientUnits="userSpaceOnUse" xlink:href="#a"/>
  <linearGradient id="aa" x1="354.93" x2="337.96" y1="711.61" y2="757.1" gradientUnits="userSpaceOnUse" xlink:href="#a"/>
  <linearGradient id="z" x1="127.24" x2="353.9" y1="667.73" y2="799.99" gradientUnits="userSpaceOnUse" xlink:href="#a"/>
  <linearGradient id="y" x1="148.17" x2="108.43" y1="634.85" y2="687.37" gradientUnits="userSpaceOnUse" xlink:href="#a"/>
  <linearGradient id="x" x1="156.82" x2="124.53" y1="666.98" y2="726.3" gradientUnits="userSpaceOnUse" xlink:href="#a"/>
  <linearGradient id="w" x1="177.83" x2="146.12" y1="683.66" y2="754.72" gradientUnits="userSpaceOnUse" xlink:href="#a"/>
  <linearGradient id="v" x1="203.78" x2="179.48" y1="709.61" y2="760.89" gradientUnits="userSpaceOnUse" xlink:href="#a"/>
  <linearGradient id="u" x2="0" y1="710.85" y2="780.05" gradientUnits="userSpaceOnUse" xlink:href="#a"/>
  <linearGradient id="t" x1="211.19" x2="202.74" y1="725.06" y2="784.36" gradientUnits="userSpaceOnUse" xlink:href="#a"/>
  <linearGradient id="s" x1="230.14" x2="226.43" y1="737.42" y2="801.67" gradientUnits="userSpaceOnUse" xlink:href="#a"/>
  <linearGradient id="r" x1="250.68" x2="245.43" y1="749.77" y2="791.17" gradientUnits="userSpaceOnUse" xlink:href="#a"/>
  <linearGradient id="q" x1="278.63" x2="275.54" y1="756.57" y2="808.47" gradientUnits="userSpaceOnUse" xlink:href="#a"/>
  <linearGradient id="p" x1="302.19" x2="307.65" y1="755.95" y2="812.79" gradientUnits="userSpaceOnUse" xlink:href="#a"/>
  <linearGradient id="o" x1="157.5" x2="102.76" y1="611.25" y2="638.34" gradientUnits="userSpaceOnUse" xlink:href="#a"/>
  <linearGradient id="n" x1="264.77" x2="212.8" y1="737.35" y2="784.98" gradientUnits="userSpaceOnUse" xlink:href="#a"/>
  <linearGradient id="m" x1="290.13" x2="238.17" y1="748" y2="795.64" gradientUnits="userSpaceOnUse" xlink:href="#a"/>
  <linearGradient id="l" x1="330.17" x2="278.21" y1="759.95" y2="807.58" gradientUnits="userSpaceOnUse" xlink:href="#a"/>
  <linearGradient id="k" x1="236.34" x2="184.38" y1="718.75" y2="766.38" gradientUnits="userSpaceOnUse" xlink:href="#a"/>
  <linearGradient id="j" x1="204.41" x2="163.38" y1="697.29" y2="747.55" gradientUnits="userSpaceOnUse" xlink:href="#a"/>
  <linearGradient id="i" x1="188.01" x2="146.1" y1="677.49" y2="716.38" gradientUnits="userSpaceOnUse" xlink:href="#a"/>
  <linearGradient id="h" x1="175.43" x2="133.53" y1="657.92" y2="696.81" gradientUnits="userSpaceOnUse" xlink:href="#a"/>
  <linearGradient id="g" x1="160.27" x2="118.37" y1="625.14" y2="664.02" gradientUnits="userSpaceOnUse" xlink:href="#a"/>
  <linearGradient id="f" x1="154.4" x2="112.49" y1="603.49" y2="642.37" gradientUnits="userSpaceOnUse" xlink:href="#a"/>
  <linearGradient id="e" x1="334.06" x2="339" y1="752.86" y2="806" gradientUnits="userSpaceOnUse" xlink:href="#a"/>
  <radialGradient id="d" cx="386.8" cy="394.75" r="34.902" gradientTransform="matrix(1 0 0 1.6376 0 -251.02)" gradientUnits="userSpaceOnUse">
   <stop stop-color="#f6ebeb" stop-opacity=".6771" offset="0"/>
   <stop stop-color="#f4eded" stop-opacity="0" offset="1"/>
  </radialGradient>
 </defs>
 <path transform="matrix(-3.6166 -1.1035 1.9967 -2.7246 763.22 1722.8)" d="m395.84 391.3a33.208 33.208 0 1 1 -66.417 0 33.208 33.208 0 1 1 66.417 0z" fill="url(#d)" opacity=".6637"/>
 <g transform="translate(0 -552.36)">
  <path d="m152.21 898.81 8.2011-11.41c1.9701-2.357 3.4926-4.714 6.566-7.0711l7.0711-3.4462c2.1887 0.13819 4.1095-0.68031 6.2981-0.11992l5.3186 0.53571 10.102 5.0508c5.1117 3.8309 10.286 7.867 16.578 10.517l12.211 6.6553 9.5964 4.0406c2.5051 0.51099 5.0087 1.0226 8.6756 1.0688 3.7855 0.58034 7.8055 0.80899 12.538-0.0306l7.9613-1.3367c3.9904-0.86375 6.3006-2.7356 9.2113-4.2472 2.8415-1.852 4.4922-4.061 7.0991-5.913 3.8857-3.4045 7.4587-6.9967 10.16-11.112 3.6169-4.5169 6.5581-9.3397 9.0914-14.29 2.9885-5.8926 4.0971-11.785 5.765-17.678 2.348-7.5582 2.4696-15.966 3.7447-23.739 1.0903-6.2293 0.67431-12.459 0.47448-18.688-0.46414-10.042-0.6205-19.398-1.5432-30.305-1.6836-14.479-3.4989-28.643-5.4972-43.437-0.62921-9.7648-3.0926-19.53-5.0508-29.294-0.9389-4.4641-1.9345-8.9395-4.0406-13.637-2.8598-6.3976-6.0565-12.795-10.102-19.193-3.9169-5.0126-6.9323-6.5888-12.122-9.0914-4.8672-1.0406-9.6031-2.3438-15.152-2.0203-4.3773 0.0125-8.7546 0.82059-13.132 2.0203-0.49524-0.37143-9.2409 2.6624-14.142 6.0609s-9.1823 8.5863-9.0914 8.5863c-2.1202 3.5292-4.1042 7.113-5.0508 11.112l-2.0203 10.102s-2.0876 11.414-2.5254 20.203c-0.36889 7.4056 2.3453 22.343 2.5254 22.223 0.9053 6.4612 1.9133 11.87 3.5355 16.668l8.5863 17.678 11.617 22.223 7.5762 16.668c1.1104 4.209 2.7466 8.4179 3.5355 12.627 0.38365 2.7682 1.3568 4.3575 0.50508 9.5964l-2.0203 6.566c-0.84179 2.9435-1.6836 5.4014-2.5254 9.5964-1.4416 1.8354-3.1458 5.0474-8.5863 7.5762-2.331 0.62168-4.1516 1.5497-7.5762 1.5152l-4.7982-1.0102-5.8084-3.5355-10.102-5.8084c-4.6448-2.6874-8.392-5.1303-12.211-6.6093-3.109-1.9479-6.9765-1.5926-10.517-2.2295-3.8481 0.0796-7.2326-2e-3 -12.18 0.92349l-8.2904 3.385-6.9818 4.487-6.8032 7.3083-5.1401 5.6145c-1.2643 2.5116-2.8635 3.4754-4.2192 6.5047-1.4318 2.5771-2.7899 4.6558-3.7989 6.3874-0.30738 4.5306 1.0532 8.8837 4.0406 13.65 2.2241 2.8874 4.4483 4.4444 6.6724 5.9464 2.0542 1.2402 3.9523 1.8558 5.7714 2.1555z" fill="#feb334" stroke="#803300" stroke-width="1.5"/>
  <path d="m148.14 897.61 4.1921-10.215 2.0203-4.2931 3.283-4.7982 3.5406-3.158c1.1854-1.4104 3.0219-2.4923 4.5406-2.9029l5.3033-1.7678 4.7982-0.50508c3.2385-0.90513 6.9762-0.23942 10.859 0.75762 2.2943 1.5598 4.585 2.5844 7.5761 4.5457l6.8185 3.5355 7.5685 5.0508 6.5736 3.5355 7.0711 2.7779 8.3338 2.2728 8.5863 1.0102 11.869-0.25254 8.5863-2.0203 7.8287-3.0305 8.5863-5.8084 7.5761-6.3134 4.7982-6.3135 3.283-4.7982 3.5355-7.8287 4.5457-10.859 2.2728-7.5762 2.5254-7.8287 1.0102-5.3033 1.0102-6.8185 1.2627-5.0508 0.23722 7.5915c-0.33672 5.5612-0.40557 10.556-0.74229 15.895l-1.5152 8.0812-3.5355 12.879-3.283 9.3439-6.3135 10.354s-4.0406 5.5558-4.5457 6.566-6.566 7.5761-6.566 7.5761l-5.0508 4.0406-7.9281 5.1886c-3.417 1.8336-7.8255 2.2243-11.517 3.1452l-6.3135 0.25254-7.5761 0.25254-6.8185-1.0102c-3.3385-0.0252-6.9373-1.3516-10.607-3.0304l-6.8185-4.0406-7.1961-3.7957c-2.0666-0.97777-3.7538-2.031-8.2138-5.0584l-6.5609-4.783-5.8084-3.5355-6.8185-2.2728-7.0711-0.75762-5.8084 1.5152-2.5254 1.5152-2.8978 2.3315-3.6682 3.982-3.283 4.2931-3.7881 4.0406-3.3272 4.4674c-1.2762-0.13561-2.388-0.47274-3.8954-1.0707z" fill="#da8705"/>
  <path d="m233.58 860.36-3.5355 0.75508c-1.7673 0.83982-3.1324 0.57084-4.6732 0.50507l-2.9029-0.88769-7.5761-4.2931-8.3338-5.0508-6.0609-3.283-8.7189-4.4156-6.9511-1.3648-7.1631 0.22453c-2.8108 0.27467-3.8054 0.15566-6.8363 0.90809-2.7334 0.66701-4.6765 1.7225-6.6961 2.6274-1.7016 0.99218-3.9903 1.4865-5.2446 2.9259-3.9646 1.9361-4.941 4.2294-7.6348 6.1655l-1.2627 2.0152 7.5761-4.0355 7.5762-2.7779 8.3338-2.2728c1.5152-0.29796 3.0305-0.41238 4.5457 0l5.3033 1.7678 7.3236 3.0305 6.0609 3.0305c2.787 1.4124 4.6124 3.0171 6.8185 4.5457 3.0242 1.7615 5.2338 2.7084 7.5762 3.7881l5.0508 1.5152 7.0711 1.0102c3.1706 0.24457 5.865-0.59835 6.8185-1.2627 1.6667-0.75762 2.2774-1.5152 3.0304-2.2728z" fill="#fed357"/>
  <path d="m276.58 762.77c-0.88214 2.236-2.6466 3.7192-2.9042 7.8287-1.0048 3.3144-0.68051 5.2333-2.9042 10.985-1.6075 3.9396-1.4294 8.1025-5.4296 11.743-1.9388 1.1983-4.389 1.8457-8.5863-0.50508l-4.1669-5.0508c-2.2728-4.0406-0.96238-0.15699-6.4397-10.607-1.6945-4.1159-4.5805-8.42-7.4499-10.48l-6.566-4.5457 6.566 4.5457c3.1824 1.12 6.3876 2.2628 8.5863 2.3991 5.1927 0.73644 9.8331 0.73642 14.016 0.12627 7.447-0.80135 12.546-2.9446 15.279-6.4397z" fill="#fcfdff" stroke="#814c00"/>
  <path d="m275.68 763.63 5.7268-4.2338" fill="none" stroke="#814c00"/>
  <path d="m245.81 815.02c28.118 14.848 45.457 7.8486 61.285-2.2135" fill="none" stroke="#814c00"/>
  <path d="m245.56 842.57c11.993 13.086 25.532 17.742 50.3 13.318" fill="none" stroke="#814c00"/>
  <path d="m237.92 857.96c-3.6088 12.264 10.861 34.033 17.849 34.405" fill="none" stroke="#814c00"/>
  <path d="m211.78 865.03c-4.1076 6.2489-3.3453 13.848-2.9858 18.873" fill="none" stroke="#814c00"/>
  <path d="m184.03 850.69c-4.8765 4.9674-3.7528 13.337-3.2383 18.621" fill="none" stroke="#814c00"/>
  <path d="m157.39 853.72c-3.3216 6.2489 4.0157 18.646 5.7268 19.884" fill="none" stroke="#814c00"/>
  <path transform="matrix(.39041 0 0 .96667 79.07 291.45)" d="m394.29 454.33a13.036 8.0357 0 1 1 -26.071 0 13.036 8.0357 0 1 1 26.071 0z"/>
  <path transform="matrix(.39041 0 0 .96667 131.73 292.19)" d="m394.29 454.33a13.036 8.0357 0 1 1 -26.071 0 13.036 8.0357 0 1 1 26.071 0z"/>
  <path d="m223.18 677.15c10.79-1.2151 22.396-3.6539 32.321-3.5714 11.089-0.21454 20.423 3.0826 29.643 6.6071-4.5329-5.2946-7.2424-11.197-15.714-15.179-5.5131-2.2889-14.577-2.2752-24.107-1.4286-8.9387 2.0314-15.525 7.8268-22.143 13.571z" fill="#fed357"/>
  <path d="m197.24 714.12v34.094h39.5c2.4879-6.4836 9.0948-11.125 16.844-11.125s14.325 4.6413 16.812 11.125h39.687v-34.094c-37.615-5.1319-75.229-5.1339-112.84 0zm78.438 6.0312h25.094c2.3264 0 4.1875 1.4846 4.1875 3.3125v13.969c0 1.8279-1.8611 3.2812-4.1875 3.2812h-25.094c-2.3264 0-4.1875-1.4534-4.1875-3.2812v-13.969c0-1.8279 1.8611-3.3125 4.1875-3.3125zm-68.656 0.28125h25.094c2.3264 0 4.1875 1.4534 4.1875 3.2812v13.969c0 1.8279-1.8611 3.3125-4.1875 3.3125h-25.094c-2.3264 0-4.1875-1.4846-4.1875-3.3125v-13.969c0-1.8279 1.8611-3.2812 4.1875-3.2812z" fill="#e6e6e6" stroke="#000" stroke-width=".63397"/>
  <path d="m275.69 720.16h25.084a4.1993 3.2994 0 0 1 4.1993 3.2994v13.959a4.1993 3.2994 0 0 1 -4.1993 3.2994h-25.084a4.1993 3.2994 0 0 1 -4.1993 -3.2994v-13.959a4.1993 3.2994 0 0 1 4.1993 -3.2994" fill="#f00" opacity=".6827"/>
  <path d="m207.03 720.42h25.084a4.1993 3.2994 0 0 1 4.1993 3.2994v13.959a4.1993 3.2994 0 0 1 -4.1993 3.2994h-25.084a4.1993 3.2994 0 0 1 -4.1993 -3.2994v-13.959a4.1993 3.2994 0 0 1 4.1993 -3.2994" fill="#00a0ff" opacity=".6827"/>
  <path d="m197.15 713.75 1.2127-1.665 1.2039-1.6464c0.40026-0.54566 0.79969-1.0882 1.199-1.6275s0.79836-1.0754 1.1979-1.6083l1.2008-1.5888c0.4012-0.52631 0.80353-1.0493 1.2076-1.569s0.81002-1.036 1.2184-1.5489l1.233-1.5285c0.41385-0.50607 0.8308-1.0087 1.2515-1.5078s0.8451-0.99473 1.2739-1.4868 0.862-0.9806 1.3002-1.4655 1.3676-1.0635 1.8166-1.5412c-0.16444 6.2069-2.255 12.499-2.4938 17.352z" fill="#e6e6e6" stroke="#000" stroke-width=".33277"/>
  <path d="m309.95 713.78-1.6937-1.2475-1.8881-1.3933-1.8881-1.3933-1.8881-1.3933-1.8881-1.3933-1.8881-1.3933-2.0339-1.2475 0.74055 3.8839 0.77775 3.4999 0.14583 0.92357 4.9581 0.72914 3.0624 0.34027 2.5763 0.24304z" fill="#e6e6e6" stroke="#000" stroke-width=".33277"/>
  <g transform="matrix(.31316 -.03179 .03179 .31316 170.72 633.59)" clip-path="url(#aw)" fill-rule="evenodd">
   <path d="m165.68 626.16c-1.3136 5.6922 0.57522 69.62 67.218 102.17 74.632 36.454 118.51 9.3453 125.88-8.0317 0.43786-1.7514 1.2696-15.144 1.2696-15.144s5.2983 5.9486 3.109 19.084c-1.3448 8.0686-6.4616 28.536-48.164 32.402-41.857 3.8799-90.637-12.26-120.85-42.034-33.758-33.269-44.662-71.809-27.147-95.891l-1.3136 7.4436z" fill="#2a61ad" filter="url(#av)"/>
   <path d="m176.45 596.34c-8.9253 26.522 30.744 111.89 133.98 137.35 25.456-1.4142 46.909-25.407 51.152-38.135 26.554-1.4142 34.394 57 24.495 69.728-15.556 35.355-36.036 58.888-76.127 60.276-26.29 0.91018-183.1-18.358-217.04-169.68-8.4853-49.497 65.155-72.267 83.54-59.539z" fill="url(#z)"/>
   <path d="m178.55 620.61c-33.276 4.7452-71.768 35.555-72.985 74.551-5.6795-6.2443 8.25 15.938 8.25 15.938-1.372-19.609 21.325-70.094 68.987-77.085-0.74581-3.804-4.6894-6.9778-4.2525-13.403z" fill="url(#y)" filter="url(#c)"/>
   <path d="m186.78 642.06c-45.957 9.7904-67.844 53.251-60.69 90.225-5.6795-6.2443 10.438 12.469 10.438 12.469-3.1195-21.357 0.53488-74.055 55.69-91.35-2.1648-4.9486-3.2531-7.5398-5.4375-11.344z" fill="url(#x)" filter="url(#c)"/>
   <path d="m198.29 661.81c-30.944 15.595-63.116 42.152-46.543 98.971 2.6848 2.2186 10.688 9.75 10.688 9.75s-24.954-62.873 42.136-100c-1.8555-2.7834-3.6358-6.2415-6.2811-8.7188z" fill="url(#w)" filter="url(#c)"/>
   <path d="m151.75,760.78125c-1.10028-.90921-1.36971-1.03389.28125.78125-.0939-.26473-.18959-.51739-.28125-.78125z" fill="url(#v)"/>
   <path d="m211.06 677.19c-26.588 8.9672-57.222 52.041-38.07 100.24-6.1862-2.1655 11.75 8.9375 11.75 8.9375-3.0931-2.4745-21.931-71.991 33.696-101.34-1.0337-2.5958-7.3751-7.5348-7.3751-7.8437z" fill="url(#u)" filter="url(#c)"/>
   <path d="m227.23 692.15c-24.732 9.5858-51.553 60.411-30.856 100.88 1e-5 0.30893 14.812 8.0312 14.812 8.0312s-21.3-63.672 23.199-103.22c-3.5922-2.3293-7.1564-5.3785-7.1564-5.6874z" fill="url(#t)" filter="url(#c)"/>
   <path d="m244.81 705.73c-20.151 7.9767-42.463 60.089-24.15 99.43 1e-5 0.30031 15.594 6.5625 15.594 6.5625s-22.556-54.239 16.897-101.25c-3.1702-1.8574-5.5568-4.1339-8.3406-4.7435z" fill="url(#s)" filter="url(#c)"/>
   <path d="m261.03 714.99c-11.954 10.915-32.435 60.076-14.122 99.417 0 0.30032 15.281 4.7188 15.281 4.7188s-15.876-65.329 9.9715-98.724c-4.0451-2.5135-7.7283-4.493-11.131-5.412z" fill="url(#r)" filter="url(#c)"/>
   <path d="m280.7 724.2c-7.4752 9.8252-18.574 65.08-8.2928 96.08 1.5446 1.536 17.75 4.4062 17.75 4.4062s-10.704-58.204 0.31564-97.159c-4.9199-1.2012-7.3757-2.6401-9.7728-3.327z" fill="url(#q)" filter="url(#at)"/>
   <path transform="matrix(.8349 0 0 1 52.712 0)" d="m295.24 733.36c-5.3128 11.37-1.8316 71.516 8.7584 91.703 1.5446 1.536 15.281-0.21875 15.281-0.21875s-8.2766-63.399-9.1525-91.221c-5.2899-2.4337-9.1431 1.5009-14.887-0.26375z" fill="url(#p)" filter="url(#au)"/>
   <path d="m174.29 603.3c-39.415-5.8133-79.683 13.382-80.393 53.414 0.43688-0.12796 5.1858 19.444 5.1858 19.444 6.067-30.093 26.087-56.286 76.81-60.236-1.1093-6.8586-0.31135-10.275-1.6027-12.622z" fill="url(#o)" filter="url(#c)"/>
   <path d="m168.46 603.55c-16.064 10.503-20.902 56.78-2.4714 88.352 18.773 32.157 45.171 51.177 95.766 73.523-53.752-12.975-90.777-36.933-108.12-70.434-21.924-42.343-11.739-84.645 1.8535-91.441-1.2357-1e-5 12.357-0.61785 12.975-1e-5z" fill="#810000" filter="url(#as)"/>
   <path d="m122.33 672.39c6.1784 16.682 20.748 43.033 46.956 65.491 29.314 25.119 77.23 46.956 114.3 53.752-32.746 2.4714-83.388-14.279-119.24-47.574-25.959-24.105-36.453-45.103-42.013-71.67z" fill="#8f0000" filter="url(#ar)"/>
   <path d="m242.19 801.52c19.771 8.032 105.65 28.421 135.93-33.981-10.503 11.121-37.071 49.427-135.93 33.981z" fill="#800000" filter="url(#aq)"/>
   <path d="m187.44 785.12c8.6606-4.3303 56.294-17.321 77.946-66.811 1.2372-1.8558 3.7117 6.1862 16.084 6.1862-12.991 22.889-31.549 58.769-79.183 72.997-8.6606-3.0931-7.4234-5.5676-14.847-12.372z" fill="url(#n)" filter="url(#b)"/>
   <path d="m214.99 802.34c8.6606-4.3303 54.982-23.445 76.633-72.935 1.2372-1.8558 5.4614 2.6867 17.834 2.6867-12.116 28.138-36.799 71.017-78.308 77.371-8.6606-3.0931-8.7357-0.31841-16.159-7.1232z" fill="url(#m)" filter="url(#b)"/>
   <path d="m253.28 815.16c8.6606-4.3303 60.231-33.506 65.698-83.433 5.1741-0.98099 17.272-1.2501 18.271-1.6875-7.7418 36.449-27.175 73.641-63.873 92.244-8.6606-3.0931-13.985-3.3804-20.096-7.1232z" fill="url(#l)" filter="url(#b)"/>
   <path d="m159.01 766.52c8.6606-4.3303 57.606-16.446 79.258-65.936 1.2372-1.8558 11.585 7.9359 14.772 7.4984-12.991 22.889-31.549 56.581-79.183 70.81-8.6606-3.0931-7.4234-5.5676-14.847-12.372z" fill="url(#k)" filter="url(#b)"/>
   <path d="m138.02 747.69c8.6606-4.3303 57.606-16.446 79.258-65.936-1.3873 0.76872 7.6486 11.873 10.835 11.435-12.991 22.889-27.613 52.645-75.246 66.873-8.6606-3.0931-7.4234-5.5676-14.847-12.372z" fill="url(#j)" filter="url(#b)"/>
   <path d="m121.61 726.14c6.9109-1.2683 52.795-8.5727 76.196-65.498 2.3153 4.0028 7.2111 10.295 11.325 13.879-13.428 19.389-32.999 50.767-77.624 63.886-1.8559-1.2372-5.8769-5.4614-9.8979-12.266z" fill="url(#i)" filter="url(#b)"/>
   <path d="m107.8 701.62c18.355-8.0731 53.723-13.522 76.196-63.024 2.3153 4.0028 5.046 10.604 9.1603 14.188-13.428 19.389-30.834 48.602-76.386 63.886-1.8559-1.2372-4.9489-8.2452-8.97-15.05z" fill="url(#h)" filter="url(#b)"/>
   <path d="m95.119 668.53c35.367-4.3614 46.299-39.504 78.67-61.787 2.3153 4.0028-0.21226 13.697 3.902 17.281-27.966 16.296-30.525 44.581-76.077 59.865-1.8559-1.2372-2.4745-8.5545-6.4955-15.359z" fill="url(#g)" filter="url(#b)"/>
   <path d="m93.572 648.73c6.6016-26.632 20.317-43.834 81.454-53.126 2.3153 4.0028-0.52156 11.842-0.11899 12.332-29.512 3.3054-64.858 19.527-79.17 54.297-1.8559-1.2372-3.4024-4.2242-2.1652-13.503z" fill="url(#f)" filter="url(#b)"/>
   <path d="m337.31 739.66c-3.5298 0.80675-10.648 3.8494-12.656 5.0938 0.24783 14.459 3.1972 46.602 13.531 74.406 5.4765-0.21154 15.156-7.4688 15.156-7.4688s-1.7194-44.815-16.031-72.031z" fill="url(#e)" filter="url(#c)"/>
  </g>
  <g transform="matrix(.31316 -.03179 .03179 .31316 170.72 633.59)" fill-rule="evenodd">
   <path d="m308.75 733.04c11.74 7.0438 42.263 61.046 44.611 109.18s-4.6959 113.87 50.481 170.23c51.655 8.2178 57.524-25.827 66.916-43.437s11.74-38.741 24.653-41.089c-45.785-55.176-69.264-96.265-83.352-131.48s-19.782-76.746-33.87-84.964-54.616 1.0513-69.439 21.569z" fill="url(#ai)"/>
   <path d="m309.93 735.39c24.653 14.088 68.09 62.22 71.612 127.96s46.959 147.92 70.438 144.4c31.697-24.653 11.319-11.144 48.501-38.688-24.285-70.053-62.588-111.58-71.98-165.58-7.0258-40.399-41.089-97.439-70.438-98.613-28.175 4.6959-39.915 15.262-48.133 30.523z" fill="url(#ah)"/>
   <path d="m447.05 1006c10.061-11.811 35.432-67.801 35.432-79.612-0.43743-0.43743-10.061-20.997-10.061-20.997s-25.808 78.737-41.556 87.923c-0.43743 0.43743 6.124 8.3111 16.185 12.685z" fill="url(#ag)" filter="url(#ak)"/>
   <path d="m420.37 979.31c5.2491-3.9368 37.181-65.177 41.993-93.172 0.43742-0.87485-13.123-19.684-13.123-19.684s-24.933 72.613-40.243 93.172c-0.87486 0 7.4363 15.31 11.373 19.684z" fill="url(#af)" filter="url(#al)"/>
   <path d="m402 944.32c4.8117-6.5614 35.869-75.238 37.619-92.297-0.43743-0.43742-10.061-17.497-10.061-17.497s-22.309 64.302-36.744 85.298c-0.43743-0.43743 9.186 25.808 9.186 24.496z" fill="url(#ae)" filter="url(#am)"/>
   <path d="m385.81 894.45c7.4363-10.498 31.932-55.553 34.994-76.987 0-0.87486-6.9988-19.247-6.9988-19.247s-17.497 49.867-31.932 67.801c-0.43742 1.3123 1.3123 22.309 3.9369 28.433z" fill="url(#ad)" filter="url(#an)"/>
   <path d="m378.38 838.9c2.1871-2.1871 23.184-37.619 27.121-61.24 0 0.87485-6.124-20.122-6.124-20.122s-12.685 41.993-25.808 59.928c-1.3123 1.3123 4.8117 21.871 4.8117 21.434z" fill="url(#ac)" filter="url(#ao)"/>
   <path d="m365.69 800.84s20.997-43.743 24.496-73.488c0.43743 1.7497-3.062-11.373-9.186-13.123-8.3111 10.498-13.56 48.555-27.121 65.177-0.43743 0.43743 10.498 16.185 11.811 21.434z" fill="url(#ab)" filter="url(#ap)"/>
   <path d="m344 764.39c5.2491-9.186 19.684-38.931 18.372-57.741-1.7497-1.7497-11.373 0.87486-17.935 2.6246-3.9368 11.373-6.9988 27.121-13.998 41.118 0-0.87486 8.3111 11.811 13.56 13.998z" fill="url(#aa)" filter="url(#aj)"/>
  </g>
 </g>
</svg>
